<svg xmlns="http://www.w3.org/2000/svg" xmlns:xlink="http://www.w3.org/1999/xlink" width="500" zoomAndPan="magnify" viewBox="0 0 375 374.999991" height="500" preserveAspectRatio="xMidYMid meet" version="1.0"><defs><g/><clipPath id="c99a9abacb"><path d="M 368 206 L 369.742188 206 L 369.742188 209 L 368 209 Z M 368 206 " clip-rule="nonzero"/></clipPath><clipPath id="c39879873a"><path d="M 5.242188 3.570312 L 367 3.570312 L 367 371.070312 L 5.242188 371.070312 Z M 5.242188 3.570312 " clip-rule="nonzero"/></clipPath></defs><g clip-path="url(#c99a9abacb)"><path fill="#020203" d="M 368.917969 207.050781 C 368.714844 208.738281 369.539062 208.21875 369.652344 208.476562 C 369.71875 205.621094 368.714844 207.09375 368.917969 207.050781 Z M 368.917969 207.050781 " fill-opacity="1" fill-rule="nonzero"/></g><path fill="#020203" d="M 367.851562 179.125 L 368.203125 179.597656 L 367.140625 175.566406 Z M 367.851562 179.125 " fill-opacity="1" fill-rule="nonzero"/><path fill="#020203" d="M 364.695312 153.359375 C 363.789062 156.023438 366.617188 162.570312 366.574219 167.273438 L 366.359375 168.066406 L 367.671875 170.027344 C 367.21875 167.238281 366.71875 164.03125 366.074219 161.074219 C 365.40625 158.097656 364.875 155.332031 364.695312 153.359375 Z M 364.695312 153.359375 " fill-opacity="1" fill-rule="nonzero"/><path fill="#020203" d="M 364.21875 139.121094 C 363.949219 140.09375 362.984375 136.308594 364.933594 142.328125 C 364.898438 142.007812 364.910156 141.90625 364.898438 141.714844 C 364.738281 141.171875 364.535156 140.410156 364.21875 139.121094 Z M 364.21875 139.121094 " fill-opacity="1" fill-rule="nonzero"/><path fill="#020203" d="M 364.898438 141.714844 C 365.667969 144.386719 364.832031 139.84375 364.898438 141.714844 Z M 364.898438 141.714844 " fill-opacity="1" fill-rule="nonzero"/><path fill="#020203" d="M 360.914062 129.523438 L 362.488281 132.855469 C 362.542969 132.039062 361.59375 128.902344 362.179688 129.988281 C 360.765625 126.488281 360.734375 127.335938 360.914062 129.523438 Z M 360.914062 129.523438 " fill-opacity="1" fill-rule="nonzero"/><path fill="#020203" d="M 358.875 126.578125 C 359.171875 127.144531 359.441406 127.710938 359.691406 128.289062 C 359.714844 127.925781 359.613281 127.441406 358.875 126.578125 Z M 358.875 126.578125 " fill-opacity="1" fill-rule="nonzero"/><path fill="#020203" d="M 361.332031 131.960938 L 359.691406 128.289062 C 359.65625 128.867188 359.261719 129.046875 360.402344 129.988281 C 359.941406 129.796875 360.539062 130.429688 361.332031 131.960938 Z M 361.332031 131.960938 " fill-opacity="1" fill-rule="nonzero"/><path fill="#020203" d="M 361.839844 134.179688 C 362.226562 136.207031 362.726562 138.792969 361.265625 135.425781 C 362.339844 138.722656 362.949219 140.09375 363.121094 139.777344 C 363.257812 139.484375 363.019531 137.464844 361.839844 134.179688 Z M 361.839844 134.179688 " fill-opacity="1" fill-rule="nonzero"/><path fill="#020203" d="M 363.0625 152.339844 C 363.132812 153.234375 363.210938 154.132812 363.210938 155.039062 L 364.039062 157.246094 C 363.835938 156.691406 363.699219 155.398438 363.574219 154.277344 C 363.425781 153.15625 363.234375 152.214844 363.0625 152.339844 Z M 363.0625 152.339844 " fill-opacity="1" fill-rule="nonzero"/><path fill="#020203" d="M 352.898438 108.179688 C 352.546875 108.101562 352.761719 109.605469 352.558594 110.015625 C 353.070312 110.761719 353.523438 111.542969 353.984375 112.328125 C 353.644531 110.945312 352.59375 108.53125 352.898438 108.179688 Z M 352.898438 108.179688 " fill-opacity="1" fill-rule="nonzero"/><path fill="#020203" d="M 352.558594 110.003906 L 350.328125 106.617188 C 351.878906 109.855469 352.378906 110.34375 352.558594 110.003906 Z M 352.558594 110.003906 " fill-opacity="1" fill-rule="nonzero"/><path fill="#020203" d="M 357.257812 126.476562 C 358.402344 128.378906 359.304688 130.386719 360.335938 132.355469 C 359.191406 129.976562 358.09375 127.597656 356.792969 125.296875 Z M 357.257812 126.476562 " fill-opacity="1" fill-rule="nonzero"/><path fill="#020203" d="M 345.632812 94.503906 L 347.328125 96.183594 C 346.390625 95.140625 345.417969 94.132812 344.398438 93.15625 Z M 345.632812 94.503906 " fill-opacity="1" fill-rule="nonzero"/><path fill="#020203" d="M 340.039062 85.90625 C 341.464844 87.003906 339.472656 83.472656 340.777344 84.761719 C 339.089844 82.519531 337.378906 80.785156 335.773438 79.3125 C 337.300781 81.011719 338.613281 83.074219 340.039062 85.90625 Z M 340.039062 85.90625 " fill-opacity="1" fill-rule="nonzero"/><path fill="#020203" d="M 333.089844 76.820312 C 333.882812 77.648438 334.789062 78.441406 335.761719 79.3125 C 334.933594 78.417969 334.0625 77.578125 333.089844 76.820312 Z M 333.089844 76.820312 " fill-opacity="1" fill-rule="nonzero"/><path fill="#020203" d="M 347.273438 100.488281 C 347.273438 100.136719 347.375 99.386719 346.425781 97.328125 L 346.503906 99.105469 C 346.742188 99.523438 347.011719 100 347.273438 100.488281 Z M 347.273438 100.488281 " fill-opacity="1" fill-rule="nonzero"/><path fill="#020203" d="M 346.515625 99.160156 L 346.515625 99.105469 C 345.699219 97.597656 345.132812 96.542969 344.882812 96.101562 C 345.089844 96.488281 345.585938 97.40625 346.515625 99.160156 Z M 346.515625 99.160156 " fill-opacity="1" fill-rule="nonzero"/><path fill="#020203" d="M 347.464844 100.839844 C 347.398438 100.714844 347.339844 100.613281 347.273438 100.488281 C 347.285156 100.65625 347.308594 100.746094 347.464844 100.839844 Z M 347.464844 100.839844 " fill-opacity="1" fill-rule="nonzero"/><path fill="#020203" d="M 354.042969 116.496094 C 352.683594 114.511719 350.296875 110.265625 351.574219 114.851562 C 352.75 116.167969 352.015625 113.527344 354.042969 116.496094 Z M 354.042969 116.496094 " fill-opacity="1" fill-rule="nonzero"/><path fill="#020203" d="M 347.542969 103.023438 C 348.179688 104.292969 348.710938 105.609375 349.3125 106.898438 C 349.457031 106.730469 349.390625 105.902344 350.113281 106.855469 C 349.242188 105.5625 348.449219 104.261719 347.542969 103.023438 Z M 347.542969 103.023438 " fill-opacity="1" fill-rule="nonzero"/><path fill="#020203" d="M 346.3125 101.324219 L 347.542969 103.023438 L 346.832031 101.621094 Z M 346.3125 101.324219 " fill-opacity="1" fill-rule="nonzero"/><path fill="#020203" d="M 336.835938 83.175781 C 335.523438 81.839844 334.335938 80.21875 332.875 78.464844 C 334.242188 80.492188 335.648438 82.585938 336.984375 84.570312 C 337.378906 84.707031 338.351562 85.316406 336.835938 83.175781 Z M 336.835938 83.175781 " fill-opacity="1" fill-rule="nonzero"/><path fill="#020203" d="M 341.679688 90.855469 C 341.601562 90.753906 341.5 90.628906 341.421875 90.527344 C 341.511719 90.789062 341.589844 90.96875 341.679688 90.855469 Z M 341.679688 90.855469 " fill-opacity="1" fill-rule="nonzero"/><path fill="#020203" d="M 318.351562 61.402344 C 318.394531 61.527344 318.441406 61.640625 318.488281 61.765625 C 318.542969 61.753906 318.589844 61.742188 318.644531 61.730469 Z M 318.351562 61.402344 " fill-opacity="1" fill-rule="nonzero"/><path fill="#020203" d="M 337.097656 84.988281 C 338.011719 86.585938 338.792969 87.367188 339.585938 88.09375 C 338.738281 87.003906 337.878906 85.839844 336.984375 84.570312 C 336.800781 84.511719 336.722656 84.523438 337.097656 84.988281 Z M 337.097656 84.988281 " fill-opacity="1" fill-rule="nonzero"/><path fill="#020203" d="M 328.914062 72.109375 C 329.410156 72.945312 329.976562 73.875 330.566406 74.859375 C 330.226562 73.941406 329.308594 72.222656 328.914062 72.109375 Z M 328.914062 72.109375 " fill-opacity="1" fill-rule="nonzero"/><path fill="#020203" d="M 341.285156 89.894531 C 341.339844 89.960938 341.398438 90.03125 341.464844 90.109375 C 341.285156 89.507812 341.261719 89.609375 341.285156 89.894531 Z M 341.285156 89.894531 " fill-opacity="1" fill-rule="nonzero"/><path fill="#020203" d="M 341.285156 89.894531 C 340.683594 89.15625 340.128906 88.625 339.585938 88.09375 C 340.230469 89 340.855469 89.835938 341.433594 90.539062 C 341.351562 90.3125 341.308594 90.074219 341.285156 89.894531 Z M 341.285156 89.894531 " fill-opacity="1" fill-rule="nonzero"/><path fill="#020203" d="M 309.984375 60.300781 C 310.675781 60.019531 314.671875 62.714844 316.800781 66.316406 C 319.925781 68.867188 319.957031 65.332031 318.488281 61.765625 C 318.148438 61.910156 318 62.046875 314.683594 59.429688 C 315.53125 60.675781 320.421875 66.769531 317.535156 64.652344 C 315.542969 62.75 314.773438 61.945312 314.332031 61.289062 C 313.890625 60.632812 313.777344 60.15625 312.953125 59.078125 C 313.949219 61.300781 307.007812 55.171875 306.917969 57.050781 C 308.230469 57.96875 309.453125 58.988281 310.710938 59.984375 C 310.628906 60.199219 309.171875 59.238281 309.984375 60.300781 Z M 309.984375 60.300781 " fill-opacity="1" fill-rule="nonzero"/><path fill="#020203" d="M 323.875 67.710938 L 325.0625 68.980469 C 323.910156 67.359375 323.160156 66.136719 321.804688 63.835938 C 319.5625 61.957031 318.960938 61.707031 318.644531 61.730469 C 320.546875 63.859375 322.503906 65.910156 324.339844 68.097656 Z M 323.875 67.710938 " fill-opacity="1" fill-rule="nonzero"/><path fill="#020203" d="M 330.042969 74.960938 C 328.628906 74.351562 325.640625 71.460938 326.625 73.929688 C 329.851562 77.792969 329.332031 76.289062 331.46875 78.453125 C 326.34375 72.085938 333.257812 80.050781 330.023438 75.0625 C 331.109375 76.265625 332.023438 77.386719 332.886719 78.453125 C 332.058594 77.21875 331.289062 76.003906 330.585938 74.847656 C 330.621094 74.917969 330.632812 74.972656 330.667969 75.03125 L 330.691406 75.0625 L 330.679688 75.0625 C 330.8125 75.402344 330.835938 75.539062 330.644531 75.1875 C 330.621094 75.175781 330.554688 75.097656 330.53125 75.0625 C 330.382812 75.085938 330.214844 75.03125 330.042969 74.960938 C 328.730469 72.96875 329.976562 74.53125 330.507812 75.0625 C 330.554688 75.0625 330.621094 75.085938 330.667969 75.0625 C 330.667969 75.0625 330.65625 75.042969 330.65625 75.03125 C 328.890625 72.921875 326.921875 70.984375 325.074219 68.96875 C 326.082031 70.398438 327.566406 71.996094 330.042969 74.960938 Z M 330.042969 74.960938 " fill-opacity="1" fill-rule="nonzero"/><path fill="#020203" d="M 348.210938 111.65625 C 348.167969 111.410156 348.222656 111.386719 348.269531 111.351562 C 347.953125 110.921875 347.792969 110.773438 348.210938 111.65625 Z M 348.210938 111.65625 " fill-opacity="1" fill-rule="nonzero"/><path fill="#020203" d="M 347.171875 108.472656 C 347.535156 108.949219 348.042969 109.246094 348.8125 110.988281 C 349.332031 112.574219 348.460938 111.148438 348.257812 111.339844 C 348.972656 112.269531 350.523438 114.726562 349.320312 111.296875 L 348.972656 110.832031 C 347.769531 107.804688 346.785156 103.570312 347.136719 104.023438 C 346.921875 105.222656 346.84375 106.21875 347.171875 108.472656 Z M 347.171875 108.472656 " fill-opacity="1" fill-rule="nonzero"/><path fill="#020203" d="M 339.226562 91.265625 C 337.957031 89.394531 336.53125 87.640625 335.136719 85.851562 L 336.519531 89.066406 L 336.769531 88.695312 C 338.75 91.992188 338.679688 91.050781 339.226562 91.265625 Z M 339.226562 91.265625 " fill-opacity="1" fill-rule="nonzero"/><path fill="#020203" d="M 318.101562 60.539062 L 319.335938 60.621094 C 318.167969 59.90625 316.890625 59.304688 315.679688 58.648438 Z M 318.101562 60.539062 " fill-opacity="1" fill-rule="nonzero"/><path fill="#020203" d="M 311.648438 54.378906 L 312.386719 54.070312 C 311.71875 53.628906 311.015625 53.234375 310.324219 52.8125 Z M 311.648438 54.378906 " fill-opacity="1" fill-rule="nonzero"/><path fill="#020203" d="M 28.335938 260.726562 L 29.296875 262.394531 C 28.867188 261.589844 28.574219 261.078125 28.335938 260.726562 Z M 28.335938 260.726562 " fill-opacity="1" fill-rule="nonzero"/><path fill="#020203" d="M 23.128906 247.859375 L 22.664062 247.664062 C 23.082031 248.199219 23.308594 248.390625 23.128906 247.859375 Z M 23.128906 247.859375 " fill-opacity="1" fill-rule="nonzero"/><path fill="#020203" d="M 107.8125 23.265625 C 104.890625 23.945312 101.4375 24.480469 102.140625 25.058594 L 103.320312 25.375 C 105.085938 24.332031 106.535156 23.707031 107.8125 23.265625 Z M 107.8125 23.265625 " fill-opacity="1" fill-rule="nonzero"/><path fill="#020203" d="M 16.753906 134.859375 C 16.902344 134.621094 17.0625 134.375 17.21875 134.136719 C 17.183594 133.386719 17.152344 132.695312 17.117188 132.074219 C 17.015625 132.910156 16.835938 133.839844 16.753906 134.859375 Z M 16.753906 134.859375 " fill-opacity="1" fill-rule="nonzero"/><path fill="#020203" d="M 19.394531 137.761719 L 17.851562 141.171875 C 18.261719 140.421875 18.757812 139.324219 19.394531 137.761719 Z M 19.394531 137.761719 " fill-opacity="1" fill-rule="nonzero"/><path fill="#020203" d="M 74.046875 320.230469 C 74.78125 320.511719 75.503906 320.808594 76.265625 321.046875 C 73.613281 318.8125 74.519531 320.09375 74.046875 320.230469 Z M 74.046875 320.230469 " fill-opacity="1" fill-rule="nonzero"/><path fill="#020203" d="M 232.230469 11.292969 C 229.839844 10.398438 227.90625 9.796875 226.195312 9.34375 C 229.070312 10.511719 231.277344 11.757812 232.230469 11.292969 Z M 232.230469 11.292969 " fill-opacity="1" fill-rule="nonzero"/><path fill="#020203" d="M 18.226562 259.027344 C 18.859375 260.09375 19.222656 260.511719 19.371094 260.410156 C 18.738281 259.3125 18.304688 258.710938 18.226562 259.027344 Z M 18.226562 259.027344 " fill-opacity="1" fill-rule="nonzero"/><path fill="#020203" d="M 218.996094 7.949219 C 219.425781 8.109375 219.84375 8.234375 220.277344 8.378906 C 222.121094 8.605469 223.988281 8.765625 226.183594 9.34375 C 224.066406 8.480469 221.542969 7.871094 218.996094 7.949219 Z M 218.996094 7.949219 " fill-opacity="1" fill-rule="nonzero"/><path fill="#020203" d="M 319.675781 300.96875 C 319.832031 300.84375 319.992188 300.664062 320.140625 300.550781 C 320.09375 300.425781 319.925781 300.640625 319.675781 300.96875 Z M 319.675781 300.96875 " fill-opacity="1" fill-rule="nonzero"/><path fill="#020203" d="M 363.550781 232.246094 C 363.402344 233.0625 363.097656 234.363281 362.816406 235.609375 C 363.019531 235.023438 363.246094 234.003906 363.550781 232.246094 Z M 363.550781 232.246094 " fill-opacity="1" fill-rule="nonzero"/><path fill="#020203" d="M 283.359375 32.308594 C 284.992188 33.269531 283.667969 32.375 283.359375 32.308594 Z M 283.359375 32.308594 " fill-opacity="1" fill-rule="nonzero"/><path fill="#020203" d="M 289.257812 39.988281 C 288.875 39.839844 288.558594 39.773438 288.410156 39.910156 C 288.648438 39.832031 288.941406 39.863281 289.257812 39.988281 Z M 289.257812 39.988281 " fill-opacity="1" fill-rule="nonzero"/><path fill="#020203" d="M 199.933594 10.625 C 199.878906 10.625 199.832031 10.613281 199.773438 10.613281 C 200.308594 10.816406 200.214844 10.769531 199.933594 10.625 Z M 199.933594 10.625 " fill-opacity="1" fill-rule="nonzero"/><path fill="#020203" d="M 285.558594 34.164062 C 285.015625 33.691406 284.378906 33.167969 283.65625 32.636719 C 283.960938 32.898438 284.527344 33.371094 285.558594 34.164062 Z M 285.558594 34.164062 " fill-opacity="1" fill-rule="nonzero"/><path fill="#020203" d="M 285.445312 33.632812 C 285.976562 34.019531 286.394531 34.324219 286.789062 34.609375 C 287.050781 34.628906 286.925781 34.4375 285.445312 33.632812 Z M 285.445312 33.632812 " fill-opacity="1" fill-rule="nonzero"/><path fill="#020203" d="M 281.0625 31.003906 C 282.003906 31.546875 282.851562 32.09375 283.667969 32.636719 C 283.371094 32.398438 283.257812 32.285156 283.359375 32.308594 C 282.875 32.035156 282.195312 31.652344 281.0625 31.003906 Z M 281.0625 31.003906 " fill-opacity="1" fill-rule="nonzero"/><path fill="#020203" d="M 190.980469 364.765625 C 191.105469 364.789062 191.238281 364.808594 191.375 364.832031 C 193.199219 364.46875 192.394531 364.539062 190.980469 364.765625 Z M 190.980469 364.765625 " fill-opacity="1" fill-rule="nonzero"/><path fill="#020203" d="M 72.300781 56.5625 C 72.359375 56.496094 72.382812 56.460938 72.4375 56.40625 C 72.371094 56.449219 72.28125 56.507812 72.210938 56.550781 Z M 72.300781 56.5625 " fill-opacity="1" fill-rule="nonzero"/><path fill="#020203" d="M 67.898438 61.34375 C 69.246094 58.75 70.433594 57.695312 72.199219 56.542969 C 71.148438 56.417969 70.070312 56.28125 69.019531 56.203125 Z M 67.898438 61.34375 " fill-opacity="1" fill-rule="nonzero"/><g clip-path="url(#c39879873a)"><path fill="#020203" d="M 45.078125 289.347656 L 43.109375 285.210938 C 47.183594 289.015625 49.085938 292.425781 47.5 288.394531 C 46.335938 288.847656 43.664062 285.371094 41.296875 281.699219 C 40.109375 279.863281 38.929688 278.027344 37.878906 276.691406 C 36.894531 275.320312 36.042969 274.460938 35.410156 274.628906 L 34.414062 271.761719 C 34.8125 272.523438 35.003906 272.566406 35.398438 273.316406 C 33.621094 267.695312 31.707031 270.402344 28.640625 263.503906 C 27.691406 261.046875 27.339844 259.210938 28.3125 260.71875 L 25.390625 255.628906 C 24.769531 254.042969 25.335938 254.269531 25.957031 255.832031 C 24.734375 253.136719 23.695312 250.363281 22.539062 247.621094 L 22.628906 247.652344 C 21.792969 246.613281 20.367188 244.050781 19.664062 242.792969 C 19.300781 240.515625 20.277344 243.789062 20.390625 243.144531 C 19.699219 241.636719 18.941406 240.144531 18.292969 238.613281 C 18.339844 237.546875 18.792969 237.96875 19.335938 239.042969 C 19.925781 240.121094 20.636719 241.855469 21.125 243.484375 C 21.613281 240.902344 21.136719 240.007812 20.355469 238.488281 C 19.652344 236.960938 18.578125 234.796875 18.046875 229.832031 C 18.5 231.304688 19.054688 232.757812 19.550781 234.21875 C 19.867188 232.585938 19.585938 230.976562 19.335938 229.0625 C 19.074219 227.160156 18.703125 224.996094 18.578125 222.378906 C 18.386719 223.625 18.632812 233.050781 16.867188 227.996094 C 16.742188 226.480469 16.371094 224.542969 15.296875 221.8125 C 16.179688 221.609375 15.488281 218.890625 14.84375 215.433594 L 16.066406 215.492188 C 15.078125 211.820312 14.660156 212.183594 13.8125 210.03125 C 13.425781 205.804688 14.230469 204.839844 14.957031 203.789062 C 14.683594 197.046875 13.800781 208.566406 13.03125 200.59375 C 13.054688 199.175781 13.007812 197.875 12.929688 196.605469 C 12.894531 195.335938 12.851562 194.101562 12.738281 192.832031 C 12.542969 190.292969 12.125 187.621094 11.945312 184.222656 C 12.488281 180.269531 12.644531 184.933594 13.042969 183.519531 L 12.203125 179.972656 C 12.25 179.113281 12.53125 179.40625 12.679688 179.554688 C 12.476562 176.574219 11.492188 179.25 11.535156 174.558594 C 10.960938 173.878906 11.558594 171.5 12.363281 168.609375 C 13.246094 165.722656 14.039062 162.300781 13.824219 159.332031 C 14.421875 157.984375 14.421875 160.125 14.957031 159.773438 C 15.441406 151.832031 15.417969 152.988281 15.679688 146.335938 C 16.359375 144.59375 17.027344 142.847656 17.84375 141.148438 C 15.828125 144.828125 16.269531 139.5625 16.742188 134.824219 C 15.917969 136.105469 15.203125 137.214844 14.785156 137.976562 C 15.273438 135.527344 15.746094 133.082031 16.414062 130.667969 C 16.902344 129.875 17.039062 130.726562 17.105469 132.027344 C 17.175781 131.519531 17.230469 131.03125 17.289062 130.644531 C 18.578125 128.277344 18.769531 129.820312 18.78125 131.8125 C 18.25 132.582031 17.730469 133.34375 17.207031 134.089844 C 17.390625 136.0625 17.683594 137.917969 18.453125 137.761719 C 18.453125 137.261719 18.601562 136.355469 18.816406 135.371094 C 18.871094 135.878906 18.953125 136.21875 19.132812 136.050781 C 19.335938 135.855469 19.246094 135.03125 19.371094 133.816406 L 21.179688 132.671875 L 20.808594 132.128906 C 22.109375 129.21875 23.378906 126.316406 24.882812 123.507812 C 25.210938 121.808594 25.472656 120.144531 25.765625 118.433594 C 26.128906 116.757812 26.5 115.023438 26.941406 113.1875 C 27.382812 111.339844 27.917969 109.390625 28.730469 107.320312 C 29.535156 105.246094 30.375 102.933594 31.664062 100.5 C 31.132812 103.320312 32.75 101.777344 33.679688 102.480469 C 32.386719 103.457031 31.574219 105.414062 30.65625 107.671875 C 30.203125 108.804688 29.726562 110.015625 29.230469 111.273438 C 28.765625 112.542969 28.234375 113.820312 27.589844 115.066406 C 28.933594 112.472656 29.160156 113.289062 29.027344 114.046875 C 30.011719 110.84375 31.335938 107.785156 32.535156 104.644531 C 33.25 105.289062 34.121094 103.09375 35.816406 101.078125 C 34.503906 101.460938 35.183594 99.695312 36.394531 97.359375 C 37.550781 94.980469 39.53125 92.238281 40.378906 90.347656 C 41.035156 90.484375 41.035156 91.660156 38.183594 95.71875 C 42.382812 91.957031 40.152344 88.511719 44.375 84.851562 C 43.675781 85.851562 43.210938 86.324219 43.1875 86.890625 C 43.796875 85.589844 45.214844 83.582031 46.414062 82.121094 C 47.625 80.671875 48.6875 79.824219 48.382812 80.617188 L 47.636719 81.566406 C 48.9375 80.039062 50.554688 78.078125 52.230469 75.96875 C 53.953125 73.898438 55.84375 71.765625 57.496094 69.707031 C 60.949219 65.730469 63.746094 62.25 63.652344 61.277344 C 63.847656 61.367188 64.207031 63.371094 64.105469 63.949219 C 66.3125 59.382812 68.632812 54.738281 71.304688 50.265625 C 71.214844 52.121094 76.988281 51.488281 72.402344 56.371094 C 74.023438 55.316406 75.867188 53.867188 78.765625 51.046875 C 77.609375 51.667969 74.960938 51.511719 76.296875 50.296875 C 81.164062 48.519531 79.488281 48.78125 85.128906 46.277344 C 83.351562 47.160156 83.882812 44.179688 86.507812 42.449219 C 86.292969 42.992188 87.910156 44.035156 87.109375 44.859375 C 88.804688 42.808594 90.539062 40.757812 92.382812 38.84375 C 90.945312 40.191406 93.050781 40.519531 94.816406 40.113281 C 94.375 40.148438 95.78125 39.273438 97.511719 38.246094 C 99.265625 37.246094 101.371094 36.171875 102.210938 35.570312 L 99.128906 36.738281 C 106.839844 32.773438 105.265625 29.960938 113.246094 26.28125 C 112.441406 27.109375 111.988281 29.734375 116.109375 28.21875 C 117.457031 26.417969 122.3125 19.835938 129.601562 16.570312 L 131.234375 16.683594 C 133.066406 15.835938 134.914062 14.953125 136.800781 14.238281 C 135.183594 15.449219 132.183594 17.828125 128.992188 20.128906 C 125.8125 22.472656 122.574219 25.089844 120.21875 26.6875 C 123.421875 25.953125 121.328125 27.027344 125.832031 25.238281 C 127.621094 25.171875 123.683594 26.996094 122.382812 27.527344 C 125.914062 26.304688 129.433594 25.035156 133.03125 24.058594 C 132.601562 23.539062 134.539062 22.574219 136.519531 21.625 C 138.511719 20.761719 140.550781 19.949219 140.210938 19.496094 C 136.339844 20.910156 132.625 22.722656 128.890625 24.367188 C 128.449219 23.855469 129.828125 22.460938 132.332031 20.898438 C 133.585938 20.140625 135.09375 19.246094 136.824219 18.566406 C 138.558594 17.875 140.46875 17.25 142.441406 16.765625 C 144.546875 16.707031 141.511719 19.335938 141.792969 19.6875 C 142.246094 19.371094 144.011719 18.578125 145.8125 18.089844 C 147.613281 17.578125 149.390625 17.160156 149.785156 17.230469 L 146.617188 18.621094 C 148.847656 18.371094 150.523438 17.570312 152.34375 16.832031 C 154.167969 16.117188 156.171875 15.597656 158.910156 15.710938 C 160.753906 15.414062 164.59375 16.503906 164.808594 15.746094 C 161.660156 14.679688 160.371094 10.375 162.296875 9.070312 C 162.632812 9.082031 165.171875 9.152344 167.898438 9.21875 C 170.613281 9.265625 173.523438 9.695312 174.621094 9.933594 C 177.78125 10.839844 170.183594 12.910156 172.890625 13.695312 C 172.96875 13.34375 174.632812 12.808594 175.324219 12.617188 C 177.292969 12.777344 174.589844 13.726562 178.800781 13.285156 C 179.457031 11.996094 187.4375 13.230469 180.769531 12.164062 C 182.851562 11.949219 183.960938 11.996094 185.160156 12.074219 C 186.359375 12.164062 187.652344 12.230469 190.085938 12.3125 C 188.523438 11.484375 194.566406 9.570312 198.847656 9.535156 C 198.574219 9.84375 199.492188 10.339844 199.933594 10.566406 C 202.085938 10.769531 203.984375 10.984375 205.742188 11.203125 C 207.496094 11.472656 209.101562 11.800781 210.699219 12.085938 C 212.296875 12.378906 213.867188 12.664062 215.53125 12.980469 C 217.195312 13.34375 218.949219 13.714844 220.921875 14.078125 C 221.601562 14.5 225.300781 15.609375 223.582031 15.824219 C 224.746094 15.859375 225.867188 15.6875 228.265625 16.230469 C 232.636719 18.40625 222.890625 15.121094 226.128906 17.25 C 226.582031 16.640625 232.558594 17.625 236.03125 18.28125 C 235.671875 17.613281 233.746094 16.898438 231.425781 16.503906 C 229.117188 16.09375 226.46875 15.824219 224.703125 15.640625 C 224.859375 14.871094 226.511719 14.441406 229.21875 14.363281 C 230.566406 14.339844 232.183594 14.339844 233.972656 14.554688 C 235.75 14.78125 237.730469 15.109375 239.824219 15.539062 C 243.152344 16.277344 243.730469 16.867188 243.683594 17.113281 C 243.628906 17.386719 242.914062 17.457031 243.503906 17.535156 C 246.480469 18.644531 248.65625 19.257812 250.410156 19.628906 C 252.140625 20.082031 253.441406 20.277344 254.6875 20.457031 C 257.167969 20.832031 259.429688 21.183594 263.992188 23.992188 C 267.378906 26.664062 263.3125 25.871094 263.84375 26.914062 C 261.277344 25.941406 259.464844 24.886719 257.8125 23.945312 C 256.148438 23.050781 254.699219 22.203125 252.96875 21.523438 L 257.019531 23.675781 C 255.277344 23.324219 251.8125 22.191406 250.070312 21.183594 C 250.792969 21.714844 252.378906 22.496094 254.496094 23.425781 C 255.558594 23.878906 256.738281 24.386719 258.003906 24.933594 C 259.25 25.523438 260.585938 26.15625 261.957031 26.800781 C 263.324219 27.457031 264.761719 28.09375 266.167969 28.808594 C 267.546875 29.554688 268.941406 30.3125 270.285156 31.050781 C 273.015625 32.488281 275.460938 34.097656 277.429688 35.503906 C 279.082031 36.082031 281.820312 37.304688 280.824219 36.238281 L 278.109375 34.800781 C 276.070312 32.660156 283.6875 36.792969 280.519531 34.484375 C 282.488281 35.253906 284.480469 36.238281 286.65625 37.359375 C 287.730469 37.925781 288.851562 38.550781 289.972656 39.265625 C 291.070312 40.023438 292.179688 40.871094 293.300781 41.835938 L 293.515625 43.410156 C 293.617188 43.070312 290.820312 40.601562 289.28125 39.921875 C 291.546875 40.984375 295.675781 46.355469 298.597656 46.933594 C 297.691406 45.878906 296.808594 44.769531 295.835938 43.773438 C 297.714844 44.757812 299.773438 45.960938 301.9375 47.238281 C 304.109375 48.507812 306.214844 50.09375 308.050781 51.988281 C 306.996094 49.550781 307.078125 51.273438 305.105469 47.804688 C 306.589844 51.089844 294.625 39.296875 297.636719 43.910156 C 296.570312 42.152344 295.316406 41.054688 293.921875 39.875 C 292.53125 38.699219 291.035156 37.429688 289.269531 35.535156 C 289.191406 35.933594 290.355469 37.113281 286.757812 34.527344 C 286.53125 34.503906 286.054688 34.371094 285.761719 34.269531 C 285.660156 34.1875 285.613281 34.15625 285.523438 34.074219 C 285.589844 34.132812 285.636719 34.1875 285.703125 34.246094 C 285.511719 34.1875 285.488281 34.1875 285.773438 34.3125 C 286.566406 35.027344 287.164062 35.660156 287.347656 36.035156 C 286.179688 35.808594 284.175781 34.675781 282.128906 33.609375 C 280.054688 32.566406 277.984375 31.46875 276.863281 31.074219 C 274.710938 29.601562 278.019531 31.253906 276.988281 30.179688 C 275.867188 29.757812 274.734375 29.375 273.582031 29.046875 C 273.683594 28.148438 268.078125 24.582031 273.785156 27.027344 L 268.859375 24.398438 C 266.132812 22.53125 262.070312 20.457031 259.386719 19.652344 C 257.007812 18.496094 252.875 18.011719 255.242188 18.269531 C 253.863281 17.804688 252.480469 17.320312 251.089844 16.886719 L 246.878906 15.699219 L 246.867188 15.472656 C 242.835938 13.910156 238.445312 13.117188 234.019531 11.972656 C 229.523438 11.089844 224.972656 9.863281 220.253906 8.324219 C 218.804688 8.164062 217.34375 7.996094 215.632812 7.769531 C 213.925781 7.597656 211.976562 7.347656 209.601562 6.90625 L 208.75 6.058594 C 206.894531 5.875 204.121094 5.515625 201.597656 5.175781 C 199.074219 4.84375 196.808594 4.585938 195.984375 4.96875 C 195 4.449219 193.367188 4.132812 191.375 3.929688 C 190.378906 3.824219 189.292969 3.757812 188.148438 3.710938 C 187.007812 3.691406 185.804688 3.746094 184.582031 3.78125 C 182.148438 3.894531 179.625 3.960938 177.316406 4.1875 C 175.007812 4.414062 172.890625 4.585938 171.238281 4.617188 L 171.066406 5.582031 C 168.804688 5.660156 166.621094 6.09375 164.296875 6.441406 C 163.144531 6.648438 161.957031 6.851562 160.710938 7.078125 C 159.476562 7.339844 158.1875 7.667969 156.828125 7.984375 L 157.304688 8.753906 C 154.992188 9.511719 151.925781 9.785156 148.542969 10.386719 C 146.84375 10.65625 145.054688 10.929688 143.222656 11.222656 C 141.398438 11.585938 139.566406 12.050781 137.730469 12.570312 C 138.136719 12.128906 140.027344 11.699219 141.398438 11.519531 C 139.089844 11.664062 136.78125 12.140625 134.515625 12.789062 C 132.261719 13.5 130.066406 14.453125 127.90625 15.359375 C 125.71875 16.230469 123.660156 17.34375 121.589844 18.203125 C 119.527344 19.085938 117.46875 19.777344 115.464844 20.332031 C 113.699219 21.441406 112.304688 21.941406 110.902344 22.328125 C 111.074219 22.246094 111.230469 22.167969 111.355469 22.078125 C 111.164062 22.15625 110.867188 22.28125 110.574219 22.40625 C 109.679688 22.621094 108.761719 22.882812 107.800781 23.222656 C 108.660156 23.019531 109.464844 22.792969 110.15625 22.585938 C 108.71875 23.246094 106.625 24.457031 104.609375 25.679688 L 103.308594 25.328125 C 103.136719 25.417969 103 25.5 102.832031 25.601562 C 100.601562 26.347656 101.359375 26.800781 102.773438 26.859375 C 101.769531 27.492188 100.929688 28.21875 100.296875 28.808594 C 97.976562 28.488281 95.132812 32.148438 92.214844 32.238281 C 91.738281 32.988281 89.304688 34.664062 86.972656 36.421875 C 84.707031 38.277344 82.570312 40.203125 82.511719 41.203125 C 82.332031 41.078125 81.707031 41.394531 82.726562 40.65625 C 80.453125 41.949219 78.300781 43.421875 76.71875 45.199219 L 75.144531 44.972656 L 73.355469 47.308594 L 71.667969 49.730469 C 68.601562 51.421875 67.21875 52.054688 69.289062 49.15625 C 67.921875 50.761719 66.925781 51.851562 66.167969 52.6875 C 65.429688 53.5625 64.875 54.152344 64.367188 54.71875 C 63.347656 55.859375 62.386719 56.859375 60.324219 59.769531 L 60.054688 59 C 58.300781 60.835938 56.214844 64.390625 54.710938 65.050781 C 53.5 65.832031 51.746094 67.5625 49.59375 69.808594 C 47.410156 72.027344 45.132812 75.054688 42.554688 78.167969 C 37.664062 84.625 32.511719 92.25 28.390625 98.277344 C 30.054688 97.609375 28.957031 98.921875 27.667969 100.625 C 26.421875 102.34375 24.917969 104.429688 25.527344 105.074219 C 24.679688 105.585938 23.480469 107.261719 24.179688 104.960938 C 22.609375 108.351562 21.398438 110.863281 20.21875 113.085938 C 19.042969 115.304688 18.25 117.402344 17.945312 120.054688 C 17.140625 120.652344 17.84375 118.296875 17.277344 118.875 C 17.152344 119.476562 16.800781 121.242188 16.222656 121.84375 C 15.65625 122.441406 16.234375 120.675781 16.472656 119.488281 C 15.769531 121.308594 15.328125 122.726562 15.070312 123.859375 C 14.863281 125.015625 14.820312 125.886719 14.898438 126.554688 C 15.058594 127.902344 15.667969 128.46875 16.28125 128.96875 C 15.316406 130.65625 14.707031 131.960938 14.332031 133.207031 C 14.027344 134.476562 13.949219 135.675781 14.039062 137.125 C 13.199219 138.257812 12.089844 140.253906 13.234375 135.699219 C 13.03125 136.320312 12.613281 137.601562 12.089844 139.164062 C 11.84375 139.945312 11.558594 140.796875 11.277344 141.679688 C 11.050781 142.574219 10.8125 143.503906 10.585938 144.410156 C 9.703125 148.046875 9.011719 151.421875 9.636719 151.695312 C 9.183594 152.441406 8.875 155.296875 8.886719 156.011719 C 8.300781 158.914062 7.972656 160.488281 7.777344 162.074219 C 7.539062 163.648438 7.335938 165.222656 7.007812 168.101562 L 7.417969 166.527344 C 8.480469 168.949219 7.210938 171.339844 6.996094 176.007812 L 6.863281 175.859375 C 6.339844 178.511719 6.238281 180.132812 6.183594 181.230469 C 6.125 182.328125 6.160156 182.90625 6.207031 183.472656 C 6.238281 184.039062 6.273438 184.605469 6.195312 185.695312 C 6.101562 186.769531 5.96875 188.378906 5.730469 191.03125 L 6.613281 190.441406 C 7.585938 190.929688 7.335938 193.238281 6.964844 196.230469 C 6.691406 199.210938 6.386719 202.890625 6.976562 205.917969 L 7.324219 203.664062 C 7.722656 205.304688 7.371094 207.671875 6.894531 210.097656 C 6.429688 212.523438 5.773438 215.003906 5.988281 216.703125 C 5.957031 217.460938 5.503906 215.59375 5.253906 214.574219 C 5.582031 223.578125 6.589844 215.546875 7.960938 222.027344 C 7.574219 223.351562 6.058594 220.769531 6.816406 225.199219 C 6.816406 226.34375 8.003906 229.425781 9.25 232.960938 C 10.699219 236.449219 11.96875 240.425781 12.417969 243.484375 C 12.464844 242.058594 12.523438 240.664062 13.824219 243.460938 C 15.339844 247.859375 16.269531 256.140625 19.402344 259.460938 C 19.515625 260.058594 19.496094 260.320312 19.394531 260.386719 C 20.332031 261.941406 21.554688 264.601562 22.992188 266.949219 C 24.40625 269.304688 25.789062 271.46875 26.636719 272.238281 C 26.285156 273.347656 26.964844 275.046875 28.007812 277.042969 C 29.058594 279.023438 30.507812 281.300781 32.09375 283.351562 C 33.644531 285.425781 35.070312 287.429688 36.089844 288.9375 C 37.109375 290.445312 37.574219 291.542969 36.972656 291.929688 C 38.058594 293.425781 39.089844 294.953125 40.210938 296.414062 L 43.628906 300.765625 L 43.222656 300.71875 C 45.246094 303.632812 47.003906 305.296875 48.328125 306.566406 C 49.683594 307.800781 50.714844 308.550781 51.8125 309.230469 C 52.773438 310.554688 51.769531 309.863281 51.5625 309.863281 C 54.871094 313.828125 56.679688 316.039062 58.695312 317.738281 C 60.699219 319.449219 62.601562 320.976562 66.335938 323.265625 L 66.394531 324.546875 C 68.363281 325.78125 76.828125 335.421875 85.953125 340.144531 C 85.804688 340.179688 85.535156 340.214844 84.789062 339.875 C 89.8125 342.617188 95.28125 346.730469 100.386719 349.832031 C 105.433594 353.003906 110.066406 355.125 112.632812 354.464844 C 114.988281 355.316406 117.457031 355.894531 119.855469 356.609375 C 111.015625 352.746094 121.734375 355.792969 118.285156 353.785156 C 120.058594 354.398438 122.222656 355.542969 123.398438 356.347656 C 124.601562 357.082031 124.792969 357.570312 122.585938 356.8125 L 121.972656 356.382812 C 119.699219 357.527344 133.03125 361.027344 132.457031 361.976562 C 141.578125 364.832031 150.761719 367.007812 159.917969 368.695312 C 169.0625 370.382812 178.234375 371.132812 187.222656 371.269531 C 186.53125 370.824219 185.839844 370.394531 185.160156 369.910156 C 187.234375 369.964844 189.316406 369.910156 191.386719 369.910156 C 193.027344 370.191406 193.617188 370.9375 189.144531 370.960938 C 191.523438 371.710938 196.617188 370.167969 196.71875 369.796875 C 205.457031 369.75 193.402344 371.617188 196.074219 371.460938 L 199.71875 371.109375 L 198.878906 371.007812 C 200.339844 370.621094 201.121094 370.28125 202.207031 370 C 203.296875 369.738281 204.675781 369.476562 207.335938 369.171875 C 210.734375 369.046875 209.171875 369.804688 210.507812 369.691406 C 210.507812 369.792969 210.96875 369.785156 212.554688 369.488281 C 215.171875 369.136719 217.761719 368.695312 220.378906 368.300781 L 217.082031 367.765625 C 220.433594 366.679688 224.363281 366.542969 220.582031 365.988281 C 223.34375 366.40625 230.585938 365.082031 237.378906 363.097656 C 240.785156 362.160156 244.046875 360.925781 246.707031 360.097656 C 249.34375 359.167969 251.304688 358.398438 252.128906 358.25 C 253.203125 357.628906 254.28125 357.0625 255.390625 356.515625 C 256.476562 355.9375 257.585938 355.363281 258.742188 354.816406 C 261.039062 353.707031 263.539062 352.710938 266.199219 351.375 C 264.773438 351.828125 263.472656 351.136719 268.089844 348.996094 C 267.796875 350.5 270.070312 349.789062 272.878906 348.429688 C 275.664062 347.035156 279.140625 345.335938 281.347656 344.925781 C 279.457031 345.402344 282.535156 343.398438 285.34375 341.484375 C 288.148438 339.558594 290.539062 337.527344 287.695312 338.503906 C 291.332031 336.238281 288.433594 339.125 291.453125 337.753906 C 299.242188 331.117188 309.804688 324.476562 318.40625 315.027344 C 318.304688 314.667969 316.472656 315.824219 318.011719 313.546875 C 319.992188 312.367188 321.824219 311.019531 323.726562 309.714844 C 324.496094 308.71875 324.53125 307.984375 324.847656 307.15625 C 325.175781 306.339844 325.765625 305.421875 327.632812 303.996094 C 327.011719 304.324219 326.09375 304.808594 327.054688 303.441406 C 335.511719 294.375 342.316406 283.511719 348.007812 272.183594 C 353.726562 260.820312 358.378906 249.003906 363.167969 237.199219 C 361.59375 240.3125 362.179688 238.105469 362.882812 235.601562 C 362.261719 237.1875 362.113281 235.351562 361.59375 235.554688 C 362.804688 232.257812 364.082031 228.949219 365.191406 225.585938 C 364.761719 224.507812 365.261719 221.746094 365.746094 219.058594 C 366.257812 216.386719 366.484375 213.769531 366.007812 213.15625 L 365.78125 216.488281 C 365.375 214.1875 364.433594 215.625 363.3125 217.460938 C 362.136719 219.296875 360.835938 221.527344 360.019531 221.054688 C 360.1875 222.3125 359.984375 223.703125 359.589844 225.199219 C 359.160156 226.683594 358.480469 228.257812 357.824219 229.933594 C 356.589844 233.3125 355.050781 236.925781 355.027344 241.039062 C 354.191406 242.601562 354.890625 239.441406 354.234375 240.210938 C 354.460938 242.363281 353.746094 244.699219 351.972656 248.808594 L 351.960938 248.265625 C 351.042969 251.269531 349.875 253.714844 348.9375 256.015625 C 347.996094 258.328125 346.921875 260.355469 345.835938 262.425781 C 344.761719 264.5 343.652344 266.609375 342.246094 268.898438 C 340.878906 271.195312 339.429688 273.789062 337.480469 276.714844 L 338.773438 276.261719 C 337.128906 278.808594 336.574219 279.21875 335.671875 280.316406 C 335.046875 284.011719 340.039062 273.03125 339.710938 276.511719 C 338.804688 277.15625 337.683594 278.628906 336.453125 280.488281 C 335.195312 282.34375 333.734375 284.519531 332.285156 286.660156 C 330.90625 288.847656 329.273438 290.820312 327.972656 292.425781 C 326.636719 294.011719 325.492188 295.136719 324.644531 295.328125 C 321.722656 298.929688 326.308594 294.898438 323.375 298.511719 L 322.175781 299.121094 L 321.984375 300.492188 C 319.992188 302.816406 318.363281 303.429688 317.964844 303.234375 C 318.496094 302.726562 319.257812 301.582031 319.742188 300.96875 C 318.191406 302.226562 316.402344 304.324219 314.863281 306.226562 C 313.3125 308.128906 311.886719 309.703125 311.367188 310.136719 C 312.476562 309.148438 313.609375 308.1875 314.707031 307.179688 C 306.511719 316.886719 294.226562 326.335938 284.683594 334.050781 L 285.679688 333.871094 C 283.882812 335.386719 282.523438 336.328125 281.402344 337.007812 C 280.292969 337.699219 279.433594 338.152344 278.539062 338.617188 C 276.785156 339.570312 274.835938 340.417969 270.421875 343.082031 L 270.707031 342.808594 C 269.132812 344.226562 266.730469 345.605469 264.183594 346.832031 C 266.289062 345.234375 259.398438 348.15625 262.214844 346.152344 C 257.824219 348.699219 256.691406 349.253906 256.046875 349.855469 C 255.378906 350.386719 255.195312 350.964844 252.332031 352.890625 L 250.625 352.800781 C 249.660156 353.503906 249.164062 353.945312 248.316406 354.476562 C 247.453125 354.988281 246.265625 355.644531 243.808594 356.503906 C 247.648438 354.625 240.34375 356.539062 244.589844 354.320312 C 241.90625 354.804688 239.65625 355.441406 237.695312 356.121094 C 235.714844 356.753906 234.007812 357.367188 232.46875 357.945312 C 229.410156 359.144531 226.929688 359.871094 224.292969 359.316406 C 222.085938 360.789062 224.40625 360.539062 226.988281 360.050781 C 229.570312 359.621094 232.308594 358.648438 231.019531 359.234375 C 232.21875 359.226562 231.324219 359.847656 229.695312 360.5625 C 228.050781 361.207031 225.664062 361.886719 223.964844 362.160156 C 222.257812 362.523438 220.695312 362.261719 218.488281 361.988281 C 217.390625 361.875 216.132812 361.785156 214.617188 361.820312 C 213.855469 361.84375 213.042969 361.886719 212.148438 361.976562 C 211.242188 362.023438 210.269531 362.101562 209.191406 362.238281 C 210.054688 362.148438 210.085938 361.988281 210.9375 361.898438 C 209.296875 361.84375 207.753906 362.203125 206.101562 362.523438 C 205.277344 362.679688 204.425781 362.839844 203.535156 362.941406 C 202.640625 362.996094 201.6875 362.976562 200.691406 362.851562 C 198.550781 364.152344 195.554688 363.132812 194.988281 364.652344 L 202.921875 363.769531 C 200.691406 364.117188 198.542969 364.789062 195.996094 365.34375 C 193.449219 365.886719 190.492188 366.066406 186.746094 365.75 C 187.335938 365.445312 189.554688 365.015625 191.070312 364.765625 C 188.886719 364.335938 186.871094 365.195312 184.617188 364.664062 C 184.945312 363.972656 187.355469 363.882812 190.300781 363.769531 C 191.773438 363.722656 193.367188 363.6875 194.894531 363.574219 C 196.425781 363.394531 197.875 363.15625 199.050781 362.792969 C 197.875 362.542969 195.632812 363.03125 193.957031 363.203125 C 192.28125 363.382812 191.195312 363.417969 192.371094 362.601562 C 190.675781 363.644531 188.523438 363.621094 186.113281 363.542969 C 183.691406 363.359375 180.984375 363.066406 178.019531 363.757812 L 178.449219 362.882812 C 177.519531 363.03125 175.585938 363.28125 173.886719 363.109375 L 177.035156 362.226562 C 172.257812 362.792969 168.058594 360.707031 163.550781 360.539062 C 168.226562 361.160156 168.734375 361.480469 168.542969 361.796875 C 168.363281 362.136719 167.46875 362.5 169.449219 362.984375 C 157.621094 362.679688 163.007812 360.050781 150.171875 358.058594 C 151.914062 358.320312 156.578125 359.800781 153.78125 359.710938 C 151.347656 359.132812 148.222656 358.035156 146.867188 357.207031 C 138.421875 355.382812 147.941406 358.398438 144.230469 358.070312 C 141.613281 356.382812 140.007812 357.390625 136.214844 356.664062 L 136.453125 355.792969 C 134.109375 354.988281 132.773438 354.589844 131.925781 354.421875 C 131.074219 354.273438 130.722656 354.398438 130.394531 354.523438 C 129.75 354.773438 129.207031 355.054688 125.085938 353.253906 L 129.082031 353.320312 C 127.589844 352.902344 126.070312 352.539062 124.589844 352.066406 C 125.007812 351.859375 125.414062 351.679688 125.84375 351.453125 C 123.367188 350.886719 121.78125 350.375 120.253906 349.777344 C 118.726562 349.175781 117.253906 348.460938 115.089844 347.261719 C 115.871094 348.324219 113.835938 348.472656 109.804688 346.636719 C 107.347656 344.824219 111.660156 346.671875 106.082031 343.894531 C 107.609375 344.019531 109.214844 344.214844 111.320312 346.050781 C 111.695312 345.902344 112.816406 346.117188 113.199219 345.980469 C 110.519531 344.167969 106.070312 342.253906 104.066406 341.234375 C 104.8125 341.664062 105.707031 342.1875 106.113281 342.546875 C 104.699219 342.027344 103.261719 341.539062 101.847656 340.996094 L 97.648438 339.238281 C 96.59375 338.230469 97.703125 338.570312 98.800781 338.898438 C 97.195312 338.039062 95.847656 337.824219 93.5625 336.417969 C 94.535156 336.167969 94.773438 335.5 98.203125 337.109375 C 95.585938 335.953125 93.097656 334.5625 90.5625 333.234375 C 90.242188 332.667969 87.414062 330.085938 88.488281 330.484375 C 86.710938 328.90625 84.164062 327.527344 81.484375 325.9375 C 78.902344 324.238281 76.050781 322.507812 73.886719 320.207031 C 73.546875 320.09375 72.96875 319.765625 71.90625 318.960938 C 70.832031 317.953125 69.8125 316.933594 68.804688 315.914062 C 67.84375 314.859375 66.867188 313.804688 65.882812 312.71875 C 64.886719 311.652344 63.824219 310.609375 62.691406 309.535156 C 61.59375 308.425781 60.382812 307.3125 59 306.203125 C 58.433594 304.921875 57.8125 303.710938 57.316406 302.398438 C 53.566406 298.410156 59.542969 307.609375 53.273438 300.925781 C 48.769531 296.210938 52.558594 298.375 51.441406 296.382812 C 50.207031 295.316406 48.472656 293.878906 46.695312 292.019531 C 44.941406 290.148438 43.289062 287.761719 42.019531 285.03125 C 43.242188 286.511719 43.957031 287.882812 45.078125 289.347656 Z M 16.902344 228.144531 C 17.140625 228.769531 17.535156 229.6875 17.84375 230.570312 C 18.191406 231.453125 18.441406 232.304688 18.304688 232.835938 C 16.902344 231.65625 17.074219 230.398438 16.902344 228.144531 Z M 21.714844 125.808594 C 21.621094 126.828125 21.011719 128.234375 20.117188 129.75 C 20.46875 128.550781 20.933594 127.203125 21.714844 125.808594 Z M 264.773438 23.085938 C 264.71875 23.074219 264.671875 23.0625 264.625 23.0625 C 261.976562 21.453125 262.90625 22.042969 264.773438 23.085938 Z M 270.320312 26.257812 C 270.941406 26.449219 270.964844 26.316406 270.785156 26.078125 C 270.285156 26.078125 269.019531 25.410156 267.59375 24.617188 C 267.898438 25.023438 268.542969 25.554688 270.320312 26.257812 Z M 211.128906 369.273438 L 209.871094 369.183594 C 212.613281 368.605469 211.863281 368.933594 211.128906 369.273438 Z M 211.128906 369.273438 " fill-opacity="1" fill-rule="nonzero"/></g><path fill="#020203" d="M 19.097656 137.398438 C 18.847656 137.714844 18.65625 137.761719 18.476562 137.804688 C 18.464844 138.339844 18.632812 138.40625 19.097656 137.398438 Z M 19.097656 137.398438 " fill-opacity="1" fill-rule="nonzero"/><path fill="#020203" d="M 73.636719 320.070312 L 73.785156 320.21875 C 73.910156 320.253906 73.988281 320.253906 74.046875 320.230469 Z M 73.636719 320.070312 " fill-opacity="1" fill-rule="nonzero"/><path fill="#020203" d="M 175.335938 14.046875 C 174.066406 14 173.355469 13.886719 172.878906 13.75 C 172.832031 13.964844 173.410156 14.113281 175.335938 14.046875 Z M 175.335938 14.046875 " fill-opacity="1" fill-rule="nonzero"/><path fill="#020203" d="M 299.695312 43.207031 C 298.597656 42.378906 297.421875 41.664062 296.265625 40.917969 C 297.894531 42.0625 298.371094 42.617188 299.050781 43.363281 C 299.105469 43.148438 298.6875 42.414062 299.695312 43.207031 Z M 299.695312 43.207031 " fill-opacity="1" fill-rule="nonzero"/><path fill="#020203" d="M 321.394531 71.417969 C 321.859375 71.789062 322.199219 72.355469 322.664062 72.71875 L 322.878906 72.324219 C 321.238281 70.441406 319.867188 69.332031 321.394531 71.417969 Z M 321.394531 71.417969 " fill-opacity="1" fill-rule="nonzero"/><path fill="#020203" d="M 300.78125 47.917969 C 300.535156 48.746094 302.753906 50.027344 304.925781 51.839844 C 304.800781 51.726562 304.675781 51.625 304.550781 51.511719 C 305.875 51.261719 303.375 49.503906 300.78125 47.917969 Z M 300.78125 47.917969 " fill-opacity="1" fill-rule="nonzero"/><path fill="#020203" d="M 305.421875 52.257812 C 306.101562 52.8125 306.78125 53.390625 307.394531 53.980469 C 307.925781 53.890625 306.65625 53.222656 305.421875 52.257812 Z M 305.421875 52.257812 " fill-opacity="1" fill-rule="nonzero"/><path fill="#020203" d="M 277.679688 29.679688 C 278.753906 30.539062 278.902344 29.273438 279.410156 29.929688 C 281.210938 29.839844 270.988281 26.382812 277.679688 29.679688 Z M 277.679688 29.679688 " fill-opacity="1" fill-rule="nonzero"/><path fill="#020203" d="M 300.976562 51.285156 L 300.78125 49.925781 L 299.085938 49.527344 Z M 300.976562 51.285156 " fill-opacity="1" fill-rule="nonzero"/><path fill="#020203" d="M 283.53125 37.644531 L 287.128906 40.328125 C 287.164062 40.160156 287.683594 40.398438 288.320312 40.726562 C 286.03125 39.183594 283.597656 37.359375 283.53125 37.644531 Z M 283.53125 37.644531 " fill-opacity="1" fill-rule="nonzero"/><path fill="#020203" d="M 288.320312 40.726562 C 289.507812 41.550781 290.605469 42.367188 291.339844 42.707031 C 290.707031 42.265625 289.347656 41.269531 288.320312 40.726562 Z M 288.320312 40.726562 " fill-opacity="1" fill-rule="nonzero"/><path fill="#020203" d="M 296.039062 47.660156 L 295.121094 46.683594 L 292.609375 44.769531 C 293.765625 45.746094 294.953125 46.628906 296.039062 47.660156 Z M 296.039062 47.660156 " fill-opacity="1" fill-rule="nonzero"/><path fill="#020203" d="M 239.984375 17.171875 L 235.207031 16.050781 C 234.640625 16.21875 235.863281 16.785156 237.652344 17.171875 C 238.839844 17.285156 240.617188 17.683594 239.984375 17.171875 Z M 239.984375 17.171875 " fill-opacity="1" fill-rule="nonzero"/><path fill="#020203" d="M 252.988281 24.523438 C 251.847656 23.855469 251.847656 23.628906 251.269531 23.0625 L 250.714844 24.082031 Z M 252.988281 24.523438 " fill-opacity="1" fill-rule="nonzero"/><path fill="#020203" d="M 239.65625 20.015625 C 239.089844 20.183594 232.691406 18.9375 238.558594 20.582031 C 239.121094 20.378906 243.808594 21.578125 239.65625 20.015625 Z M 239.65625 20.015625 " fill-opacity="1" fill-rule="nonzero"/><path fill="#020203" d="M 167.636719 11.507812 L 168.859375 11.347656 L 168.5 9.480469 Z M 167.636719 11.507812 " fill-opacity="1" fill-rule="nonzero"/><path fill="#020203" d="M 108.128906 33.929688 C 113.359375 31.84375 108.796875 32.25 113.621094 30.539062 C 114.617188 29.542969 109.667969 31.945312 110.722656 31.003906 C 107.878906 32.953125 106.160156 33.507812 108.128906 33.929688 Z M 108.128906 33.929688 " fill-opacity="1" fill-rule="nonzero"/><path fill="#020203" d="M 110.734375 31.003906 C 111.1875 30.6875 111.671875 30.347656 112.171875 29.960938 C 111.332031 30.507812 110.949219 30.800781 110.734375 31.003906 Z M 110.734375 31.003906 " fill-opacity="1" fill-rule="nonzero"/><path fill="#020203" d="M 367.378906 218.796875 C 367.773438 217.574219 368.011719 216.328125 368.328125 215.082031 L 367.367188 217.429688 C 367.398438 217.890625 367.378906 218.34375 367.378906 218.796875 Z M 367.378906 218.796875 " fill-opacity="1" fill-rule="nonzero"/><path fill="#020203" d="M 367.015625 211.378906 L 368.328125 210.640625 L 367.546875 208.25 C 367.492188 209.101562 367.367188 210.765625 367.015625 211.378906 Z M 367.015625 211.378906 " fill-opacity="1" fill-rule="nonzero"/><path fill="#020203" d="M 17.308594 217.835938 L 16.980469 217.621094 C 16.765625 218.222656 16.878906 219.058594 17.117188 220.726562 Z M 17.308594 217.835938 " fill-opacity="1" fill-rule="nonzero"/><path fill="#020203" d="M 31.359375 264.332031 L 30.996094 263.570312 L 30.722656 265.464844 Z M 31.359375 264.332031 " fill-opacity="1" fill-rule="nonzero"/><path fill="#020203" d="M 54.550781 297.867188 C 53.488281 296.597656 52.117188 295.191406 51.144531 293.832031 C 53.453125 296.609375 53.816406 299.066406 54.550781 297.867188 Z M 54.550781 297.867188 " fill-opacity="1" fill-rule="nonzero"/><path fill="#020203" d="M 119.617188 45.097656 L 121.046875 47.679688 C 121.191406 47.953125 121.136719 48.15625 120.863281 48.304688 L 114.355469 51.886719 C 114.242188 51.941406 114.21875 52.03125 114.289062 52.132812 L 127.65625 76.46875 C 127.804688 76.742188 127.746094 76.945312 127.476562 77.09375 L 124.40625 78.78125 C 124.136719 78.925781 123.933594 78.871094 123.785156 78.597656 L 110.40625 54.273438 C 110.347656 54.171875 110.257812 54.140625 110.15625 54.207031 L 103.929688 57.628906 C 103.65625 57.777344 103.453125 57.71875 103.308594 57.449219 L 101.878906 54.863281 C 101.734375 54.59375 101.789062 54.386719 102.0625 54.242188 L 118.984375 44.929688 C 119.257812 44.757812 119.472656 44.828125 119.617188 45.097656 Z M 119.617188 45.097656 " fill-opacity="1" fill-rule="nonzero"/><path fill="#020203" d="M 160.847656 64.4375 L 152.140625 52.40625 C 152.085938 52.328125 152.015625 52.292969 151.925781 52.316406 L 147.195312 53.550781 C 147.070312 53.585938 147.035156 53.652344 147.058594 53.777344 L 150.511719 67.042969 C 150.589844 67.335938 150.476562 67.53125 150.183594 67.609375 L 146.796875 68.492188 C 146.503906 68.574219 146.3125 68.460938 146.230469 68.164062 L 138.332031 37.757812 C 138.25 37.460938 138.363281 37.269531 138.660156 37.191406 L 148.65625 34.585938 C 151.15625 33.9375 153.375 34.234375 155.3125 35.46875 C 157.257812 36.714844 158.570312 38.652344 159.261719 41.304688 C 159.78125 43.296875 159.757812 45.121094 159.203125 46.773438 C 158.648438 48.429688 157.632812 49.753906 156.136719 50.742188 C 156.058594 50.796875 156.046875 50.875 156.101562 50.988281 L 165.113281 63.132812 L 165.203125 63.304688 C 165.273438 63.542969 165.160156 63.703125 164.898438 63.769531 L 161.421875 64.675781 C 161.1875 64.730469 160.992188 64.652344 160.847656 64.4375 Z M 143.503906 40.070312 L 146.109375 50.070312 C 146.140625 50.195312 146.210938 50.230469 146.332031 50.207031 L 151.734375 48.804688 C 153.101562 48.453125 154.089844 47.691406 154.6875 46.527344 C 155.289062 45.371094 155.390625 44.011719 154.992188 42.46875 C 154.585938 40.894531 153.839844 39.738281 152.765625 39.003906 C 151.675781 38.265625 150.441406 38.085938 149.050781 38.449219 L 143.652344 39.851562 C 143.515625 39.875 143.480469 39.945312 143.503906 40.070312 Z M 143.503906 40.070312 " fill-opacity="1" fill-rule="nonzero"/><path fill="#020203" d="M 194.445312 61.945312 L 193.152344 56.574219 C 193.152344 56.484375 193.074219 56.4375 192.925781 56.4375 L 182.738281 56.347656 C 182.613281 56.347656 182.535156 56.394531 182.5 56.484375 L 181.074219 61.820312 C 181.039062 62.09375 180.871094 62.238281 180.566406 62.226562 L 176.964844 62.195312 C 176.808594 62.195312 176.695312 62.148438 176.613281 62.058594 C 176.535156 61.96875 176.511719 61.84375 176.546875 61.683594 L 185.355469 30.394531 C 185.421875 30.121094 185.589844 29.984375 185.863281 29.984375 L 190.199219 30.019531 C 190.480469 30.019531 190.640625 30.167969 190.707031 30.4375 L 199.003906 61.886719 L 199.050781 62.023438 C 199.050781 62.273438 198.890625 62.386719 198.585938 62.386719 L 194.941406 62.351562 C 194.667969 62.363281 194.5 62.21875 194.445312 61.945312 Z M 183.519531 52.78125 C 183.566406 52.824219 183.621094 52.847656 183.679688 52.847656 L 191.976562 52.914062 C 192.03125 52.914062 192.089844 52.894531 192.132812 52.847656 C 192.179688 52.800781 192.191406 52.769531 192.15625 52.734375 L 188.105469 36.09375 C 188.070312 36.035156 188.046875 36 188.015625 36 C 187.980469 36 187.957031 36.035156 187.921875 36.09375 L 183.484375 52.667969 C 183.472656 52.699219 183.472656 52.734375 183.519531 52.78125 Z M 183.519531 52.78125 " fill-opacity="1" fill-rule="nonzero"/><path fill="#020203" d="M 213.734375 64.753906 L 212.929688 32.320312 L 212.917969 32.171875 C 212.972656 31.933594 213.15625 31.84375 213.449219 31.921875 L 217.128906 32.796875 C 217.421875 32.863281 217.558594 33.042969 217.523438 33.316406 L 217.660156 58.761719 C 217.671875 58.863281 217.683594 58.910156 217.71875 58.921875 C 217.75 58.929688 217.785156 58.886719 217.839844 58.808594 L 229.367188 36.125 C 229.488281 35.863281 229.683594 35.773438 229.953125 35.84375 L 233.496094 36.679688 C 233.644531 36.714844 233.746094 36.78125 233.800781 36.894531 C 233.859375 37 233.847656 37.132812 233.78125 37.269531 L 218.441406 65.875 C 218.316406 66.136719 218.125 66.226562 217.851562 66.160156 L 214.128906 65.277344 C 213.855469 65.207031 213.722656 65.039062 213.734375 64.753906 Z M 213.734375 64.753906 " fill-opacity="1" fill-rule="nonzero"/><path fill="#020203" d="M 266.585938 55.65625 L 254.734375 49.472656 C 254.621094 49.414062 254.539062 49.4375 254.484375 49.550781 L 249.886719 58.386719 C 249.832031 58.5 249.855469 58.582031 249.96875 58.636719 L 257.777344 62.703125 C 258.050781 62.851562 258.117188 63.054688 257.96875 63.328125 L 256.625 65.910156 C 256.476562 66.183594 256.273438 66.25 256 66.101562 L 248.191406 62.035156 C 248.078125 61.980469 247.996094 62 247.941406 62.113281 L 243.277344 71.078125 C 243.222656 71.191406 243.242188 71.269531 243.355469 71.324219 L 255.207031 77.511719 C 255.480469 77.660156 255.546875 77.863281 255.402344 78.132812 L 254.054688 80.71875 C 253.90625 80.988281 253.703125 81.058594 253.429688 80.910156 L 237.890625 72.808594 C 237.617188 72.664062 237.550781 72.457031 237.695312 72.1875 L 252.175781 44.363281 C 252.3125 44.089844 252.527344 44.023438 252.796875 44.167969 L 268.339844 52.269531 C 268.609375 52.40625 268.679688 52.621094 268.53125 52.894531 L 267.183594 55.476562 C 267.070312 55.738281 266.867188 55.804688 266.585938 55.65625 Z M 266.585938 55.65625 " fill-opacity="1" fill-rule="nonzero"/><path fill="#020203" d="M 264.46875 88.128906 L 285.171875 64.574219 C 285.375 64.347656 285.589844 64.324219 285.828125 64.527344 L 288.453125 66.839844 C 288.679688 67.042969 288.703125 67.257812 288.5 67.484375 L 270.140625 88.363281 C 270.058594 88.457031 270.058594 88.546875 270.152344 88.625 L 279.976562 97.28125 C 280.203125 97.484375 280.226562 97.699219 280.023438 97.925781 L 278.109375 100.113281 C 277.90625 100.339844 277.691406 100.363281 277.464844 100.160156 L 264.523438 88.761719 C 264.277344 88.582031 264.265625 88.363281 264.46875 88.128906 Z M 264.46875 88.128906 " fill-opacity="1" fill-rule="nonzero"/><path fill="#020203" d="M 174.894531 300.585938 C 174.824219 300.585938 174.757812 300.585938 174.691406 300.574219 C 173.671875 300.460938 172.925781 299.542969 173.039062 298.523438 L 196.886719 78.351562 C 197 77.332031 197.917969 76.582031 198.9375 76.695312 C 199.957031 76.808594 200.703125 77.726562 200.589844 78.746094 L 176.738281 298.917969 C 176.636719 299.882812 175.832031 300.585938 174.894531 300.585938 Z M 174.894531 300.585938 " fill-opacity="1" fill-rule="nonzero"/><path fill="#020203" d="M 174.894531 300.585938 C 174.824219 300.585938 174.757812 300.585938 174.691406 300.574219 C 144.816406 297.332031 117.988281 282.640625 99.152344 259.199219 C 80.316406 235.757812 71.726562 206.394531 74.972656 176.496094 C 78.210938 146.597656 92.894531 119.746094 116.3125 100.894531 C 139.734375 82.042969 169.085938 73.457031 198.949219 76.695312 C 199.96875 76.808594 200.714844 77.726562 200.601562 78.746094 C 200.488281 79.765625 199.570312 80.515625 198.550781 80.402344 C 169.675781 77.261719 141.285156 85.578125 118.644531 103.808594 C 96.003906 122.035156 81.8125 147.992188 78.675781 176.902344 C 75.539062 205.816406 83.847656 234.21875 102.0625 256.875 C 120.277344 279.535156 146.210938 293.742188 175.097656 296.878906 C 176.117188 296.992188 176.863281 297.910156 176.75 298.929688 C 176.636719 299.882812 175.832031 300.585938 174.894531 300.585938 Z M 174.894531 300.585938 " fill-opacity="1" fill-rule="nonzero"/><path fill="#020203" d="M 174.894531 300.585938 C 174.824219 300.585938 174.757812 300.585938 174.691406 300.574219 C 156.351562 298.578125 140.457031 284.949219 129.929688 262.191406 C 119.550781 239.734375 115.613281 210.992188 118.839844 181.265625 C 122.0625 151.527344 132.070312 124.300781 147.011719 104.601562 C 162.171875 84.625 180.609375 74.714844 198.960938 76.707031 C 199.980469 76.820312 200.726562 77.738281 200.613281 78.757812 C 200.5 79.777344 199.582031 80.523438 198.5625 80.410156 C 181.59375 78.578125 164.320312 87.957031 149.992188 106.855469 C 135.445312 126.023438 125.710938 152.589844 122.550781 181.671875 C 119.402344 210.742188 123.230469 238.785156 133.328125 260.636719 C 143.277344 282.164062 158.117188 295.042969 175.109375 296.878906 C 176.128906 296.992188 176.875 297.910156 176.761719 298.929688 C 176.636719 299.882812 175.832031 300.585938 174.894531 300.585938 Z M 174.894531 300.585938 " fill-opacity="1" fill-rule="nonzero"/><path fill="#020203" d="M 179.320312 300.824219 C 177.78125 300.824219 176.230469 300.742188 174.691406 300.574219 C 173.671875 300.460938 172.925781 299.542969 173.039062 298.523438 C 173.152344 297.503906 174.078125 296.753906 175.085938 296.867188 C 192.066406 298.703125 209.328125 289.324219 223.660156 270.425781 C 238.207031 251.257812 247.941406 224.691406 251.097656 195.609375 C 257.5625 135.925781 233.996094 84.242188 198.542969 80.402344 C 197.523438 80.289062 196.773438 79.371094 196.886719 78.351562 C 197 77.332031 197.917969 76.582031 198.9375 76.695312 C 236.429688 80.761719 261.480469 134.292969 254.789062 196.015625 C 251.5625 225.753906 241.566406 252.980469 226.613281 272.679688 C 212.757812 290.976562 196.117188 300.824219 179.320312 300.824219 Z M 179.320312 300.824219 " fill-opacity="1" fill-rule="nonzero"/><path fill="#020203" d="M 256.488281 143.074219 C 237.878906 143.074219 215.554688 141.769531 192.167969 139.234375 C 154.210938 135.109375 119.652344 128.402344 99.71875 121.289062 C 98.746094 120.9375 98.246094 119.871094 98.585938 118.910156 C 98.9375 117.933594 100 117.4375 100.964844 117.777344 C 120.636719 124.800781 154.878906 131.4375 192.5625 135.527344 C 230.238281 139.617188 265.101562 140.480469 285.828125 137.839844 C 286.847656 137.703125 287.789062 138.429688 287.910156 139.449219 C 288.035156 140.46875 287.324219 141.410156 286.304688 141.53125 C 278.246094 142.5625 268.089844 143.074219 256.488281 143.074219 Z M 256.488281 143.074219 " fill-opacity="1" fill-rule="nonzero"/><path fill="#020203" d="M 273.296875 259.503906 C 273.09375 259.503906 272.878906 259.46875 272.675781 259.390625 C 253 252.367188 218.757812 245.726562 181.074219 241.636719 C 143.390625 237.546875 108.527344 236.6875 87.808594 239.328125 C 86.804688 239.464844 85.851562 238.738281 85.726562 237.71875 C 85.601562 236.699219 86.316406 235.757812 87.335938 235.632812 C 108.332031 232.960938 143.527344 233.820312 181.472656 237.933594 C 219.425781 242.058594 253.984375 248.765625 273.921875 255.878906 C 274.894531 256.230469 275.390625 257.296875 275.050781 258.257812 C 274.78125 259.027344 274.054688 259.503906 273.296875 259.503906 Z M 273.296875 259.503906 " fill-opacity="1" fill-rule="nonzero"/><path fill="#020203" d="M 187.039062 301.242188 C 182.941406 301.242188 178.820312 301.015625 174.691406 300.574219 C 173.671875 300.460938 172.925781 299.542969 173.039062 298.523438 C 173.152344 297.503906 174.078125 296.753906 175.085938 296.867188 C 203.964844 300.007812 232.355469 291.691406 254.992188 273.460938 C 277.632812 255.234375 291.828125 229.277344 294.964844 200.367188 C 298.097656 171.453125 289.789062 143.050781 271.578125 120.394531 C 253.363281 97.734375 227.429688 83.527344 198.542969 80.390625 C 197.523438 80.277344 196.773438 79.359375 196.886719 78.339844 C 197 77.320312 197.917969 76.570312 198.9375 76.683594 C 228.8125 79.925781 255.636719 94.617188 274.476562 118.058594 C 293.3125 141.5 301.902344 170.863281 298.652344 200.761719 C 295.417969 230.660156 280.734375 257.511719 257.3125 276.363281 C 237.152344 292.621094 212.566406 301.242188 187.039062 301.242188 Z M 187.039062 301.242188 " fill-opacity="1" fill-rule="nonzero"/><path fill="#020203" d="M 296.820312 202.4375 C 296.753906 202.4375 296.683594 202.4375 296.617188 202.429688 L 76.625 178.558594 C 75.605469 178.445312 74.859375 177.527344 74.972656 176.507812 C 75.085938 175.488281 75.992188 174.75 77.023438 174.851562 L 297.011719 198.722656 C 298.03125 198.835938 298.777344 199.753906 298.664062 200.773438 C 298.5625 201.738281 297.761719 202.4375 296.820312 202.4375 Z M 296.820312 202.4375 " fill-opacity="1" fill-rule="nonzero"/><path fill="#020203" d="M 260.40625 127.902344 C 259.125 126.25 257.109375 125.332031 255.015625 125.433594 C 250.375 125.671875 234.503906 127.042969 224.917969 134.835938 L 190.253906 162.777344 L 110.085938 138.644531 C 108.582031 138.179688 106.953125 138.394531 105.617188 139.257812 C 104.28125 140.117188 103.386719 141.523438 103.171875 143.109375 L 102.683594 147.003906 C 102.425781 149.078125 103.351562 151.0625 105.105469 152.195312 L 128.933594 167.613281 C 129.070312 167.691406 129.183594 167.792969 129.273438 167.894531 L 152.003906 193.589844 L 134.695312 207.527344 C 132.367188 209.203125 130.042969 211.117188 127.609375 213.359375 C 127.25 213.6875 126.886719 214.027344 126.535156 214.367188 L 98.554688 205.726562 C 95.734375 204.863281 92.710938 206.449219 91.816406 209.292969 L 90.765625 212.792969 C 90.121094 214.867188 90.765625 217.097656 92.40625 218.480469 L 110.03125 233.480469 C 108.277344 236.121094 106.804688 238.679688 105.640625 241.117188 C 104.585938 243.316406 104.847656 245.863281 106.328125 247.765625 C 107.8125 249.683594 110.222656 250.566406 112.613281 250.078125 C 115.285156 249.523438 118.125 248.71875 121.066406 247.6875 L 131.246094 268.476562 C 132.195312 270.425781 134.210938 271.617188 136.351562 271.492188 L 140.007812 271.308594 C 141.445312 271.242188 142.769531 270.617188 143.730469 269.554688 C 144.691406 268.488281 145.191406 267.117188 145.121094 265.667969 L 143.652344 236.40625 C 144.058594 236.144531 144.476562 235.882812 144.886719 235.609375 C 147.476562 233.921875 149.96875 232.085938 152.210938 230.230469 L 170.050781 216.816406 L 189.328125 245.183594 C 189.40625 245.308594 189.472656 245.445312 189.53125 245.613281 L 198.5625 272.488281 C 199.21875 274.449219 200.964844 275.886719 203.011719 276.136719 L 206.894531 276.601562 C 207.121094 276.625 207.335938 276.644531 207.5625 276.644531 C 208.910156 276.644531 210.199219 276.148438 211.207031 275.21875 C 212.375 274.140625 213.007812 272.613281 212.929688 271.027344 L 209.316406 187.316406 L 244.894531 160.578125 C 254.859375 153.203125 260.066406 138.132812 261.421875 133.703125 C 262.058594 131.722656 261.671875 129.558594 260.40625 127.902344 Z M 260.40625 127.902344 " fill-opacity="1" fill-rule="nonzero"/><g fill="#000000" fill-opacity="1"><g transform="translate(78.74053, 311.540143)"><g><path d="M 10.890625 6.109375 L 7.0625 3.953125 L 15.3125 -24.15625 L 18.203125 -22.53125 L 11.34375 0.6875 L 11.765625 0.921875 L 28.90625 -16.53125 L 31.625 -15.015625 L 25.65625 8.71875 L 26.078125 8.953125 L 42.328125 -9 L 45.15625 -7.421875 L 25.484375 14.296875 L 21.640625 12.140625 L 27.015625 -9.640625 L 26.65625 -9.84375 Z M 10.890625 6.109375 "/></g></g></g><g fill="#000000" fill-opacity="1"><g transform="translate(114.058674, 330.495644)"><g><path d="M 24.34375 8.25 L 20.9375 7.09375 L 20.953125 -1.15625 L 9.4375 -5.0625 L 4.40625 1.5 L 1.078125 0.359375 L 19.671875 -23.484375 L 24.09375 -21.984375 Z M 20.5 -19.546875 L 11.234375 -7.4375 L 20.953125 -4.140625 L 20.984375 -19.390625 Z M 20.5 -19.546875 "/></g></g></g><g fill="#000000" fill-opacity="1"><g transform="translate(141.6809, 339.593946)"><g><path d="M 13.734375 2.484375 L 10.4375 1.890625 L 12.4375 -9.140625 L 5.828125 -27.96875 L 9.4375 -27.328125 L 14.625 -12.765625 L 15.09375 -12.671875 L 25 -24.5 L 28.546875 -23.859375 L 15.734375 -8.546875 Z M 13.734375 2.484375 "/></g></g></g><g fill="#000000" fill-opacity="1"><g transform="translate(167.899593, 344.1344)"><g><path d="M 22.328125 -27.609375 L 22.203125 -24.828125 L 8.796875 -25.421875 L 8.34375 -15.046875 L 20.40625 -14.515625 L 20.28125 -11.71875 L 8.21875 -12.25 L 7.671875 0.328125 L 4.3125 0.1875 L 5.5625 -28.34375 Z M 22.328125 -27.609375 "/></g></g></g><g fill="#000000" fill-opacity="1"><g transform="translate(192.688547, 345.210559)"><g><path d="M 25.578125 -2.53125 L 22 -2.171875 L 18.609375 -9.71875 L 6.515625 -8.515625 L 4.640625 -0.453125 L 1.140625 -0.109375 L 8.234375 -29.515625 L 12.859375 -29.96875 Z M 10.609375 -26.265625 L 7.15625 -11.40625 L 17.375 -12.421875 L 11.109375 -26.3125 Z M 10.609375 -26.265625 "/></g></g></g><g fill="#000000" fill-opacity="1"><g transform="translate(221.70013, 342.148029)"><g><path d="M 4.171875 -1.078125 L -2.9375 -28.734375 L 7.109375 -31.3125 C 8.972656 -31.789062 10.613281 -31.882812 12.03125 -31.59375 C 13.445312 -31.300781 14.613281 -30.675781 15.53125 -29.71875 C 16.445312 -28.769531 17.101562 -27.535156 17.5 -26.015625 C 17.9375 -24.296875 17.867188 -22.769531 17.296875 -21.4375 C 16.722656 -20.101562 15.601562 -18.925781 13.9375 -17.90625 L 14.046875 -17.5 C 15.023438 -17.375 15.894531 -17.003906 16.65625 -16.390625 C 17.414062 -15.785156 18.234375 -14.796875 19.109375 -13.421875 L 23.703125 -6.09375 L 20.359375 -5.234375 L 15.421875 -12.984375 C 14.828125 -13.890625 14.242188 -14.570312 13.671875 -15.03125 C 13.097656 -15.488281 12.453125 -15.757812 11.734375 -15.84375 C 11.015625 -15.925781 10.148438 -15.835938 9.140625 -15.578125 L 4.25 -14.3125 L 7.4375 -1.90625 Z M 10.25 -18.8125 C 11.96875 -19.25 13.148438 -19.972656 13.796875 -20.984375 C 14.441406 -22.003906 14.550781 -23.335938 14.125 -24.984375 C 13.707031 -26.617188 12.96875 -27.726562 11.90625 -28.3125 C 10.851562 -28.894531 9.46875 -28.96875 7.75 -28.53125 L 1.03125 -26.796875 L 3.53125 -17.078125 Z M 10.25 -18.8125 "/></g></g></g><g fill="#000000" fill-opacity="1"><g transform="translate(249.390374, 334.777824)"><g><path d="M 1.875 -15.375 L 6 -5.53125 L 19.421875 -11.15625 L 20.5 -8.59375 L 3.984375 -1.671875 L -7.0625 -28.015625 L 9.171875 -34.8125 L 10.25 -32.25 L -2.890625 -26.75 L 0.796875 -17.9375 L 12.375 -22.796875 L 13.453125 -20.234375 Z M 1.875 -15.375 "/></g></g></g><g fill="#000000" fill-opacity="1"><g transform="translate(273.654557, 324.523977)"><g><path d="M 3.6875 -2.21875 L -11.046875 -26.6875 L -2.15625 -32.046875 C -0.507812 -33.035156 1.03125 -33.59375 2.46875 -33.71875 C 3.914062 -33.84375 5.210938 -33.578125 6.359375 -32.921875 C 7.515625 -32.273438 8.5 -31.28125 9.3125 -29.9375 C 10.21875 -28.414062 10.585938 -26.9375 10.421875 -25.5 C 10.253906 -24.0625 9.519531 -22.613281 8.21875 -21.15625 L 8.4375 -20.796875 C 9.414062 -20.960938 10.351562 -20.859375 11.25 -20.484375 C 12.15625 -20.117188 13.226562 -19.398438 14.46875 -18.328125 L 20.953125 -12.625 L 18 -10.84375 L 11.0625 -16.859375 C 10.226562 -17.566406 9.472656 -18.054688 8.796875 -18.328125 C 8.117188 -18.597656 7.421875 -18.664062 6.703125 -18.53125 C 5.992188 -18.40625 5.191406 -18.078125 4.296875 -17.546875 L -0.03125 -14.921875 L 6.578125 -3.953125 Z M 4.421875 -20.953125 C 5.941406 -21.878906 6.863281 -22.914062 7.1875 -24.0625 C 7.519531 -25.21875 7.25 -26.523438 6.375 -27.984375 C 5.5 -29.429688 4.472656 -30.285156 3.296875 -30.546875 C 2.117188 -30.804688 0.769531 -30.472656 -0.75 -29.546875 L -6.6875 -25.96875 L -1.515625 -17.375 Z M 4.421875 -20.953125 "/></g></g></g></svg>